<?xml version="1.0" encoding="UTF-8"?><svg id="Capa_1" xmlns="http://www.w3.org/2000/svg" viewBox="0 0 620.84 284.78"><defs><style>.cls-1{fill:#010100;}.cls-2{fill:#e32729;}.cls-3{fill:#0a5da6;}.cls-4{fill:#f9e64d;}.cls-5{fill:#1d1e1c;}</style></defs><path class="cls-3" d="m182.79,128.54c-5.3,2.31-11.15,3.59-17.29,3.59-24.14,0-43.71-19.75-43.71-44.11,0-21.37,15.06-39.2,35.06-43.25-15.54,6.76-26.41,22.36-26.41,40.52,0,24.36,19.56,44.11,43.7,44.11,2.96,0,5.85-.3,8.65-.86Z"/><path class="cls-4" d="m123.84,110.22c0,27.24-21.88,49.32-48.87,49.32-11.1,0-21.35-3.74-29.55-10.04,6.66,3.7,14.28,5.79,22.38,5.79,25.99,0,47.05-21.58,47.05-48.2,0-20.99-13.09-38.84-31.36-45.45,22.93,4.07,40.35,24.26,40.35,48.57Z"/><path class="cls-4" d="m132.3,240.02c4.56-7.39,7.2-16.1,7.2-25.42,0-26.76-21.7-48.46-48.46-48.46-18.08,0-33.85,9.9-42.17,24.58,6.82-19.07,25.05-32.72,46.49-32.72,27.26,0,49.36,22.08,49.36,49.32,0,12.54-4.69,23.99-12.41,32.7Z"/><path class="cls-2" d="m148.38,178.04c0,17.49,10.18,32.59,24.89,39.59-19.54-4.36-34.14-21.8-34.14-42.65,0-24.14,19.57-43.71,43.71-43.71,6.61,0,12.88,1.46,18.49,4.1-3.08-.7-6.29-1.07-9.58-1.07-23.95,0-43.37,19.58-43.37,43.74Z"/><path class="cls-1" d="m191.41,220.47v-.92h2.46v-7.16l-2.46.55v-.76l3.68-1.15v8.51h2.46v.92h-6.14Z"/><path class="cls-1" d="m206.49,220.7c-.96,0-1.72-.44-2.29-1.31s-.86-2.05-.86-3.53.28-2.64.86-3.52c.57-.87,1.33-1.31,2.29-1.31s1.72.44,2.29,1.31c.57.87.86,2.05.86,3.52s-.29,2.65-.86,3.53-1.33,1.31-2.29,1.31Zm0-.92c1.23,0,1.84-1.31,1.84-3.92s-.61-3.91-1.84-3.91-1.84,1.3-1.84,3.91.61,3.92,1.84,3.92Z"/><path class="cls-1" d="m218.87,220.7c-.96,0-1.72-.44-2.29-1.31s-.86-2.05-.86-3.53.28-2.64.86-3.52c.57-.87,1.33-1.31,2.29-1.31s1.72.44,2.29,1.31c.57.87.86,2.05.86,3.52s-.29,2.65-.86,3.53-1.33,1.31-2.29,1.31Zm0-.92c1.23,0,1.84-1.31,1.84-3.92s-.61-3.91-1.84-3.91-1.84,1.3-1.84,3.91.61,3.92,1.84,3.92Z"/><path class="cls-1" d="m227.42,220.7l6.74-9.67h.93l-6.74,9.67h-.93Zm1.88-5.22c-.55,0-1-.2-1.35-.59-.35-.4-.53-.9-.53-1.51s.18-1.12.53-1.52.8-.59,1.35-.59,1,.2,1.36.59.53.9.53,1.52-.18,1.12-.53,1.51c-.35.4-.8.59-1.36.59Zm0-.62c.29,0,.52-.14.7-.41s.27-.63.27-1.08-.09-.81-.27-1.08-.41-.41-.7-.41-.52.14-.69.41c-.18.28-.26.64-.26,1.08s.09.8.26,1.08c.18.28.41.41.69.41Zm3.91,5.6c-.55,0-1-.2-1.35-.59-.35-.4-.53-.9-.53-1.51s.18-1.12.53-1.52c.35-.4.8-.59,1.35-.59s1,.2,1.36.59c.35.4.53.9.53,1.52s-.18,1.12-.53,1.51c-.35.4-.8.59-1.36.59Zm0-.62c.29,0,.52-.14.7-.41s.27-.63.27-1.08-.09-.81-.27-1.08-.41-.41-.7-.41-.52.14-.69.41-.26.64-.26,1.08.09.8.26,1.08.41.41.69.41Z"/><path class="cls-1" d="m259.38,220.22c-.82.29-1.59.44-2.32.44-1.27,0-2.29-.38-3.07-1.14-.78-.76-1.16-1.76-1.16-3s.39-2.27,1.16-3.05,1.78-1.17,3.02-1.17c.7,0,1.46.12,2.26.36v1.13c-.82-.38-1.59-.57-2.3-.57-.83,0-1.5.3-2.04.91-.53.61-.8,1.38-.8,2.31s.3,1.72.9,2.32c.6.6,1.37.9,2.32.9.57,0,1.25-.15,2.02-.45v1.01Z"/><path class="cls-1" d="m264.97,216.48c0-1.27.31-2.29.94-3.04.62-.76,1.46-1.13,2.52-1.13s1.89.38,2.52,1.13c.62.76.94,1.77.94,3.04s-.31,2.29-.94,3.05c-.62.76-1.46,1.13-2.52,1.13s-1.89-.38-2.52-1.13c-.62-.76-.94-1.77-.94-3.05Zm1.31,0c0,1.05.19,1.85.56,2.42.37.57.9.85,1.59.85s1.22-.28,1.59-.85.56-1.37.56-2.42-.19-1.84-.56-2.41c-.37-.57-.9-.85-1.59-.85s-1.22.28-1.59.85c-.37.57-.56,1.37-.56,2.41Z"/><path class="cls-1" d="m277.56,220.47v-7.98h1.47l1.75,4.91h.01l1.72-4.91h1.54v7.98h-1v-6.85h-.01l-1.8,5.16h-1.03l-1.79-5.02h-.01v6.7h-.85Z"/><path class="cls-1" d="m290.51,220.47v-7.98h2.57c1.87,0,2.8.62,2.8,1.85,0,.47-.16.88-.48,1.22-.32.34-.77.59-1.35.73,1.48.3,2.22,1.01,2.22,2.11,0,.63-.22,1.12-.65,1.48-.28.24-.6.39-.96.47-.36.08-.94.11-1.74.11h-2.41Zm1.23-4.53h.43c1.65,0,2.48-.46,2.48-1.38,0-.45-.16-.76-.48-.91-.32-.16-.94-.24-1.85-.24h-.57v2.53Zm0,3.61h1.11c.81,0,1.37-.08,1.67-.25.3-.17.46-.47.46-.91,0-.51-.25-.92-.75-1.23-.5-.3-1.18-.45-2.04-.45h-.45v2.84Z"/><path class="cls-1" d="m302.7,212.49h1.23v4.84c0,.85.13,1.46.4,1.84.27.38.7.57,1.3.57.63,0,1.08-.19,1.36-.57.28-.38.42-1,.42-1.87v-4.81h1.07v4.63c0,1-.12,1.72-.35,2.15-.5.92-1.33,1.39-2.48,1.39-1,0-1.74-.27-2.22-.82-.48-.55-.72-1.39-.72-2.53v-4.83Z"/><path class="cls-1" d="m320.42,212.68v1.06c-.9-.35-1.7-.52-2.4-.52-1.11,0-1.66.37-1.66,1.12,0,.3.1.55.31.73.21.18.59.37,1.15.57l.78.27.75.25c1.16.41,1.74,1.09,1.74,2.06,0,.74-.3,1.33-.89,1.77-.59.44-1.38.66-2.37.66-.69,0-1.58-.15-2.67-.44v-1.21c1.09.49,1.99.73,2.71.73.61,0,1.09-.12,1.45-.36s.54-.56.54-.96c0-.31-.11-.55-.32-.73-.21-.18-.65-.39-1.32-.63l-.82-.3c-.82-.3-1.38-.61-1.7-.93-.32-.32-.48-.74-.48-1.27,0-.72.24-1.27.73-1.67.49-.39,1.17-.59,2.06-.59.72,0,1.52.13,2.42.38Z"/><path class="cls-1" d="m329.75,220.47v-7.06h-3.07v-.92h7.36v.92h-3.07v7.06h-1.23Z"/><path class="cls-1" d="m339.99,220.47v-.92h2.15v-6.14h-2.15v-.92h5.52v.92h-2.15v6.14h2.15v.92h-5.52Z"/><path class="cls-1" d="m352.45,220.47v-7.98h2.58c1.87,0,2.8.62,2.8,1.85,0,.47-.16.88-.48,1.22-.32.34-.77.59-1.35.73,1.48.3,2.22,1.01,2.22,2.11,0,.63-.22,1.12-.65,1.48-.28.24-.6.39-.96.47s-.94.11-1.74.11h-2.41Zm1.23-4.53h.43c1.65,0,2.48-.46,2.48-1.38,0-.45-.16-.76-.48-.91-.32-.16-.94-.24-1.85-.24h-.57v2.53Zm0,3.61h1.11c.81,0,1.37-.08,1.67-.25.3-.17.46-.47.46-.91,0-.51-.25-.92-.75-1.23-.5-.3-1.18-.45-2.04-.45h-.45v2.84Z"/><path class="cls-1" d="m365.07,220.47v-7.98h1.23v7.06h4.3v.92h-5.52Z"/><path class="cls-1" d="m377.42,220.47v-7.98h5.39v.92h-4.17v2.42h3.53v.92h-3.53v2.8h4.45v.92h-5.68Z"/><path class="cls-1" d="m394.75,212.68v1.06c-.9-.35-1.7-.52-2.4-.52-1.11,0-1.66.37-1.66,1.12,0,.3.1.55.31.73.21.18.59.37,1.15.57l.78.27.75.25c1.16.41,1.74,1.09,1.74,2.06,0,.74-.3,1.33-.89,1.77-.59.44-1.38.66-2.37.66-.69,0-1.58-.15-2.67-.44v-1.21c1.09.49,1.99.73,2.71.73.61,0,1.09-.12,1.45-.36s.54-.56.54-.96c0-.31-.11-.55-.32-.73-.21-.18-.65-.39-1.32-.63l-.82-.3c-.82-.3-1.38-.61-1.7-.93-.32-.32-.48-.74-.48-1.27,0-.72.24-1.27.73-1.67.49-.39,1.17-.59,2.06-.59.72,0,1.52.13,2.42.38Z"/><path class="cls-1" d="m414.05,220.47v-7.98h2.41c2.65,0,3.98,1.28,3.98,3.83,0,1.18-.29,2.14-.86,2.87-.36.46-.81.79-1.33.99-.53.2-1.23.3-2.11.3h-2.08Zm1.23-.92h.62c1.17,0,2-.23,2.5-.7.5-.46.74-1.24.74-2.34s-.22-1.91-.67-2.38-1.19-.72-2.24-.72h-.95v6.14Z"/><path class="cls-1" d="m426.97,220.47v-7.98h5.39v.92h-4.17v2.42h3.53v.92h-3.53v2.8h4.45v.92h-5.68Z"/><path class="cls-1" d="m457.59,220.22c-.82.29-1.59.44-2.32.44-1.27,0-2.29-.38-3.07-1.14-.78-.76-1.16-1.76-1.16-3s.39-2.27,1.16-3.05c.77-.78,1.78-1.17,3.02-1.17.71,0,1.46.12,2.26.36v1.13c-.82-.38-1.59-.57-2.3-.57-.83,0-1.5.3-2.04.91-.53.61-.8,1.38-.8,2.31s.3,1.72.9,2.32,1.37.9,2.32.9c.57,0,1.25-.15,2.02-.45v1.01Z"/><path class="cls-1" d="m463.18,216.48c0-1.27.31-2.29.94-3.04.62-.76,1.46-1.13,2.52-1.13s1.89.38,2.52,1.13c.62.76.94,1.77.94,3.04s-.31,2.29-.94,3.05c-.62.76-1.46,1.13-2.52,1.13s-1.89-.38-2.52-1.13c-.62-.76-.94-1.77-.94-3.05Zm1.31,0c0,1.05.19,1.85.56,2.42s.9.85,1.59.85,1.22-.28,1.59-.85c.37-.57.56-1.37.56-2.42s-.19-1.84-.56-2.41c-.37-.57-.9-.85-1.59-.85s-1.22.28-1.59.85c-.37.57-.56,1.37-.56,2.41Z"/><path class="cls-1" d="m476.56,220.47v-7.98h1.23v7.06h4.3v.92h-5.52Z"/><path class="cls-1" d="m487.96,216.48c0-1.27.31-2.29.94-3.04.62-.76,1.46-1.13,2.52-1.13s1.89.38,2.52,1.13c.62.76.94,1.77.94,3.04s-.31,2.29-.94,3.05c-.62.76-1.46,1.13-2.52,1.13s-1.89-.38-2.52-1.13c-.62-.76-.94-1.77-.94-3.05Zm1.31,0c0,1.05.19,1.85.56,2.42s.9.85,1.59.85,1.22-.28,1.59-.85c.37-.57.56-1.37.56-2.42s-.19-1.84-.56-2.41c-.37-.57-.9-.85-1.59-.85s-1.22.28-1.59.85c-.37.57-.56,1.37-.56,2.41Z"/><path class="cls-1" d="m500.54,220.47v-7.98h1.47l1.75,4.91h.01l1.72-4.91h1.54v7.98h-1v-6.85h-.01l-1.8,5.16h-1.03l-1.79-5.02h-.01v6.7h-.85Z"/><path class="cls-1" d="m513.5,220.47v-7.98h2.58c1.87,0,2.8.62,2.8,1.85,0,.47-.16.88-.48,1.22-.32.34-.77.59-1.35.73,1.48.3,2.22,1.01,2.22,2.11,0,.63-.22,1.12-.65,1.48-.28.24-.6.39-.96.47s-.94.11-1.74.11h-2.41Zm1.23-4.53h.43c1.65,0,2.48-.46,2.48-1.38,0-.45-.16-.76-.48-.91-.32-.16-.94-.24-1.85-.24h-.57v2.53Zm0,3.61h1.11c.81,0,1.37-.08,1.67-.25.3-.17.46-.47.46-.91,0-.51-.25-.92-.75-1.23-.5-.3-1.18-.45-2.04-.45h-.45v2.84Z"/><path class="cls-1" d="m525.81,220.47v-.92h2.15v-6.14h-2.15v-.92h5.52v.92h-2.15v6.14h2.15v.92h-5.52Z"/><path class="cls-1" d="m537.2,220.47l3.15-7.98h1.23l3.15,7.98h-1.3l-.75-2h-3.65l-.77,2h-1.06Zm2.19-2.92h2.91l-1.46-3.81-1.45,3.81Z"/><path class="cls-5" d="m382.5,175.06s-.1-3.72-1.63-8c-2.75-7.69-10.24-12.8-18.4-12.33-3.38.2-7.13,1.34-10.45,4.51v-18.61h-13.02v57.34h9.82l1.09-4.57s3.89,5.45,11.32,5.86c0,0,9.15.41,14.8-4.5,2.17-1.89,3.32-3.02,4.92-7.02,1.22-3.06,1.68-8.87,1.56-12.69Zm-13.83,7.1c-.35,1.94-1.2,3.77-2.55,5.2-6.04,6.43-14.3-1.18-14.3-1.18v-18.95c10.09-6.68,14.59,0,14.59,0,3.69,3.79,2.93,11.21,2.26,14.94Z"/><path class="cls-5" d="m220.84,186.6c-3.36,1.34-14.79,5.25-19.28-1.5-.43-.65-.75-1.37-.99-2.12-.58-1.78-1.41-5.47-.49-10.06.8-4,4.05-7.14,8.11-7.57,2.9-.31,6.9.1,12.3,2.14.37.14.77-.13.77-.52v-9.92s-8.8-4.19-20.15-1.12c0,0-16.67,4.4-14.42,24.24,0,0,1.37,14.89,13.04,17.54.53.12,10.57,2.51,21.53-.46l.46-10.01c.02-.47-.45-.82-.89-.64Z"/><path class="cls-5" d="m244.76,154.81c-12.72,0-23.03,10.07-23.03,22.5s10.31,22.5,23.03,22.5,23.03-10.07,23.03-22.5-10.31-22.5-23.03-22.5Zm.02,34.36c-5.7,0-10.33-5.4-10.33-12.07s4.62-12.07,10.33-12.07,10.33,5.4,10.33,12.07-4.62,12.07-10.33,12.07Z"/><path class="cls-5" d="m324.97,155.32c-1.06-.2-2.14-.23-3.22-.15-3.12.22-10.27,1.31-14.55,6.63,0,0-3.27-6.95-12.14-6.68,0,0-8.32.54-14.73,6.68v-5.32h-11.05s0,41.45,0,41.45h12.82v-29.04s1.58-1.86,5.51-3.43c2.43-.97,5.22-.3,6.83,1.6.34.4.85,1.44.85,2.24,0,.66,0,28.63,0,28.63h12.86s0-29.31,0-29.31c0,0,2.31-1.92,5.1-3.04,2.48-.99,5.37-.49,7.17,1.48.57.63,1.09,1.38,1.09,2.23v28.64h13.09v-31.84c0-.57-.08-1.14-.25-1.69-.7-2.26-3.06-7.87-9.39-9.07Z"/><path class="cls-5" d="m413.68,184.1c0,1.56-.73,3.05-1.99,3.96-1.42,1.03-3.65,2.08-6.8,2.08,0,0-1.69-.02-3.37-.86-1.86-.94-2.97-2.91-2.97-4.99v-28.05h-13.21v27.98c0,3.37.91,6.7,2.77,9.5,1.05,1.59,2.6,2.88,4.5,3.86,2.99,1.55,6.41,2.11,9.76,1.73,3.6-.41,8.63-1.83,12.84-6.2v4.89h11.83v-41.78h-13.35v27.86Z"/><path class="cls-5" d="m455.8,173.67c-3.71-1.48-12.37-2.74-14.05-4.25-1.51-1.36-1.37-3.75.34-4.85,1.08-.69,2.74-1.24,5.29-1.1,0,0,5.05-.48,14.22,3.72v-9.37s-2.86-2.63-13-3.05c-.54-.02-4.13.03-5.17.15-3.1.35-9.45,1.62-12.61,7.58-1.19,2.24-1.5,4.8-1.41,7.34.27,7.52,8.71,11.5,17.99,13.14,0,0,7.23,1.09,4.09,5.25,0,0-1.64,2.39-7.53,1.99-.35-.02-7.77-.3-14.15-4.65l.03,11.31s4.33,2.56,13.76,2.63c.92,0,5.87.12,9.33-.68,6.44-1.5,10.99-7.37,10.83-13.98,0-.02,0-.05,0-.07-.14-4.95-3.33-9.26-7.94-11.09Z"/><path class="cls-5" d="m477.07,189.4c-2.2-1.89-4.15-4.67-4.6-8.66-.04-.4-.73-4.43.54-8.72.74-2.51,1.97-4.24,4.07-5.91,0,0,7.22-5.67,16.3-.87h1.86s0-7.06,0-7.06c0,0-6.61-2.86-14.74-1.18,0,0-9.19,1.23-14.39,11.01-2.38,5.28-2.66,10.1-.72,17.23,2.08,7.61,8.48,13.37,16.32,14.21,3.67.39,8.16.04,13.52-1.74v-6.75s-1.71-.01-1.84,0c-9.14,1.94-13,1.3-16.32-1.56Z"/><path class="cls-5" d="m513.58,154.76c-11.3,0-20.45,10-20.45,22.33s9.16,22.33,20.45,22.33,20.45-10,20.45-22.33-9.16-22.33-20.45-22.33Zm.07,38.18c-6.78,0-12.27-7.16-12.27-15.99s5.49-15.99,12.27-15.99,12.27,7.16,12.27,15.99-5.49,15.99-12.27,15.99Z"/><rect class="cls-5" x="535.43" y="137.47" width="7.82" height="62.08"/><path class="cls-5" d="m562.53,137.17c-7.12,0-12.89,5.68-12.89,12.68s5.77,12.68,12.89,12.68,12.89-5.68,12.89-12.68-5.77-12.68-12.89-12.68Zm.1,22.24c-5.42,0-9.82-4.4-9.82-9.82s4.4-9.82,9.82-9.82,9.82,4.4,9.82,9.82-4.4,9.82-9.82,9.82Z"/><path class="cls-5" d="m566.06,150.26c3.63-1.48,1.95-5.07.73-5.98-.41-.31-.92-.46-1.43-.46h-7.83v12.68h3.06v-5.27h2.04c.51,0,1.02.16,1.39.51,1.58,1.48,1.42,4.64,1.42,4.64h3.11c.54-6.11-2.48-6.12-2.48-6.12Zm-1.77-1.21c-1.43.71-3.76.23-3.76.23v-3.84c2.17-.62,3.42-.05,4.11.59.95.88.81,2.43-.35,3.01Z"/></svg>